<?xml version="1.0" standalone="no"?>
<!DOCTYPE svg PUBLIC "-//W3C//DTD SVG 20010904//EN"
 "http://www.w3.org/TR/2001/REC-SVG-20010904/DTD/svg10.dtd">
<svg version="1.0" xmlns="http://www.w3.org/2000/svg"
 width="360.000000pt" height="360.000000pt" viewBox="0 0 360.000000 360.000000"
 preserveAspectRatio="xMidYMid meet">
<metadata>
Created by potrace 1.14, written by Peter Selinger 2001-2017
</metadata>
<g transform="translate(0.000000,360.000000) scale(0.100000,-0.100000)"
fill="#000000" stroke="none">
<path d="M0 2744 l1 -856 42 6 42 5 -35 -10 c-52 -16 -59 -27 -30 -51 24 -20
24 -20 2 -14 -21 7 -22 4 -22 -37 0 -84 8 -104 49 -116 l36 -10 -42 5 -43 6 0
-836 0 -836 819 0 c774 0 819 1 816 18 -1 9 0 11 2 4 8 -21 39 -13 51 13 7 14
15 43 18 65 4 22 13 45 22 52 13 11 14 10 4 -7 -6 -11 -15 -38 -21 -60 -5 -22
-13 -50 -16 -62 -7 -22 -5 -23 45 -23 52 0 52 0 46 27 -4 16 -9 46 -13 68 -3
22 -11 47 -17 55 -10 13 -9 13 7 1 9 -7 17 -24 17 -37 0 -50 24 -114 42 -114
10 0 18 3 19 8 2 25 10 57 16 61 3 3 3 -11 0 -32 l-6 -37 64 0 c55 0 66 3 79
22 9 12 17 38 17 58 2 31 2 32 6 7 3 -16 0 -42 -6 -58 l-10 -29 800 0 799 0
-2 797 -3 798 -53 19 c-29 10 -51 21 -49 23 3 2 28 -5 56 -16 l51 -19 0 55 0
55 -42 -8 c-50 -8 -74 -11 -106 -13 -32 -1 -25 -33 8 -42 20 -6 21 -7 5 -8
-29 -1 -47 14 -43 35 3 19 23 25 131 39 52 7 61 24 25 50 l-23 17 22 -7 c21
-6 23 -3 23 38 0 84 -8 104 -49 116 l-36 10 43 -5 42 -6 0 836 0 836 -819 0
c-774 0 -819 -1 -816 -17 1 -10 0 -12 -2 -5 -7 20 -41 14 -49 -10 -5 -13 -8
-25 -9 -28 -7 -38 -28 -110 -31 -107 -4 4 15 88 32 145 6 21 4 22 -45 22 l-52
0 5 -37 5 -38 -11 38 c-17 56 -44 50 -57 -13 -6 -28 -11 -59 -11 -70 0 -26
-10 -50 -22 -50 -7 0 -7 4 0 13 5 6 13 39 17 71 4 33 9 65 12 73 4 10 -10 13
-60 13 -57 0 -68 -3 -81 -22 -9 -12 -17 -38 -17 -58 -2 -31 -2 -32 -6 -7 -3
16 0 42 6 58 l10 29 -800 0 -799 0 0 -856z m1670 770 c30 -101 21 -104 -10 -3
-14 43 -23 79 -19 79 3 0 16 -34 29 -76z m456 -30 l0 -89 -3 88 c-4 85 -5 88
-26 85 -17 -2 -27 -18 -47 -75 -14 -39 -29 -75 -34 -80 -5 -5 -6 0 -2 12 5 11
16 43 26 72 30 83 37 93 63 84 20 -8 22 -15 23 -97z m-608 11 c28 -69 58 -94
56 -47 0 12 3 22 8 22 18 0 8 -49 -12 -55 -22 -7 -40 1 -40 17 0 5 -6 24 -14
41 -7 18 -19 46 -26 63 -8 24 -16 30 -30 27 -10 -3 -21 -15 -23 -27 -4 -17 -5
-16 -6 6 -1 20 4 27 22 30 30 5 32 3 65 -77z m475 -68 c8 -6 8 -7 -3 -4 -10 2
-17 22 -20 61 -3 32 -3 60 0 63 3 2 6 -21 8 -53 2 -32 9 -62 15 -67z m283 105
c1 -7 0 -8 -3 -2 -2 5 -13 10 -22 10 -13 0 -28 -22 -51 -75 -22 -50 -38 -75
-49 -74 -11 0 -12 2 -3 6 8 3 29 39 48 80 28 63 37 74 55 71 13 -2 24 -9 25
-16z m-912 -66 c20 -41 36 -78 35 -83 0 -4 -17 26 -37 67 -44 89 -72 105 -72
40 0 -23 -4 -39 -9 -36 -9 6 -6 60 4 77 4 5 15 9 25 9 13 0 29 -21 54 -74z
m466 25 c0 -16 7 -37 16 -45 14 -15 14 -16 0 -16 -9 0 -16 3 -16 8 0 4 -4 24
-9 45 -5 21 -5 37 0 37 5 0 9 -13 9 -29z m450 -28 c-3 -83 0 -103 13 -103 7 0
21 16 30 35 9 19 28 53 42 75 23 37 27 39 51 28 23 -11 25 -16 19 -52 -7 -52
-27 -128 -31 -123 -2 2 3 36 11 76 16 77 14 91 -13 91 -12 0 -31 -25 -56 -70
-20 -38 -41 -70 -46 -70 -25 0 -35 13 -33 43 1 17 2 51 2 75 1 23 4 42 7 42 3
0 5 -21 4 -47z m-1088 -5 c14 -18 33 -48 42 -65 10 -21 24 -33 36 -33 18 0 20
5 15 43 -3 35 -3 37 4 12 14 -51 12 -62 -12 -67 -20 -4 -30 6 -66 64 -23 37
-45 68 -49 68 -27 -1 -30 -17 -17 -95 8 -43 13 -80 12 -81 -1 -1 -11 -4 -22
-8 -16 -5 -29 7 -67 59 -50 68 -77 78 -79 26 0 -23 -1 -24 -9 -6 -6 15 -3 25
13 38 24 21 22 22 102 -76 44 -55 55 -39 39 53 -12 67 -11 76 3 88 24 17 28
16 55 -20z m248 -38 c0 -22 -5 -30 -17 -29 -11 0 -13 3 -5 6 6 2 12 16 12 29
0 13 2 24 5 24 3 0 5 -13 5 -30z m1142 -16 c-1 -11 -10 -47 -19 -82 -24 -91
-8 -95 61 -17 31 36 61 65 65 65 4 0 15 -6 25 -13 16 -12 16 -18 -13 -95 -26
-72 -28 -84 -14 -89 10 -4 27 7 50 33 l35 39 -32 -42 c-32 -44 -48 -51 -67
-32 -8 8 -3 32 18 89 25 70 27 80 13 91 -14 11 -22 7 -53 -26 -20 -22 -46 -52
-58 -68 -13 -17 -27 -25 -37 -21 -20 8 -20 26 -2 90 25 89 25 94 6 104 -15 8
-25 -2 -66 -60 -34 -49 -55 -69 -69 -69 -16 1 -17 2 -3 6 10 2 40 36 68 74 49
68 52 70 73 56 12 -8 21 -23 19 -33z m-1654 -104 c13 -14 30 -35 39 -47 12
-18 19 -21 34 -12 18 9 18 12 4 46 -8 19 -15 43 -15 52 1 9 9 -6 19 -34 19
-49 18 -50 -1 -68 -20 -17 -22 -16 -75 42 -34 38 -59 58 -68 54 -21 -7 -18
-29 10 -97 18 -44 21 -63 13 -73 -18 -22 -33 -15 -88 37 -58 55 -65 58 -78 33
-7 -12 0 -34 25 -81 19 -35 32 -66 30 -68 -2 -3 -20 27 -39 65 -32 63 -34 72
-21 90 8 12 17 21 22 21 4 0 33 -23 64 -51 38 -33 63 -49 73 -45 11 4 14 12 9
24 -5 9 -17 43 -29 75 -21 57 -21 59 -2 73 21 15 31 11 74 -36z m1916 -26 c23
-9 19 -30 -19 -109 -23 -49 -30 -72 -22 -77 6 -4 17 -2 24 4 9 7 13 7 13 0 0
-16 -27 -22 -44 -9 -15 11 -13 19 20 85 19 41 33 80 30 88 -7 18 -30 18 -46
-1 -7 -9 -15 -13 -18 -10 -6 5 27 34 40 35 3 0 13 -3 22 -6z m127 -100 c21
-19 16 -36 -31 -113 -50 -81 -34 -89 54 -29 63 43 78 49 91 38 24 -20 18 -38
-31 -107 -60 -83 -49 -100 33 -50 79 47 95 51 111 26 11 -18 9 -25 -18 -60
-18 -21 -34 -39 -37 -39 -2 0 10 18 27 40 26 32 30 43 20 55 -14 17 -35 10
-107 -34 -53 -33 -83 -33 -83 -1 0 10 4 20 8 22 15 6 82 105 82 121 0 33 -24
28 -96 -21 -62 -42 -75 -48 -85 -36 -13 16 -9 26 46 123 18 33 22 48 14 58 -9
10 -16 10 -33 1 -19 -10 -20 -10 -7 5 17 21 20 21 42 1z m-2305 -50 l39 -35
-42 32 c-35 26 -45 30 -57 20 -18 -15 -13 -29 30 -98 32 -50 32 -52 14 -68
-18 -16 -21 -16 -55 5 -19 12 -35 24 -35 27 0 2 16 -5 35 -17 28 -17 39 -19
50 -10 11 9 9 18 -15 54 -46 67 -54 96 -33 112 25 18 25 18 69 -22z m2243 24
c-2 -2 -17 -14 -34 -28 l-30 -25 29 32 c16 18 32 31 34 28 3 -3 3 -6 1 -7z
m-2159 -73 c5 3 10 1 10 -4 0 -17 -26 -13 -41 7 -13 15 -12 16 3 4 9 -8 22
-11 28 -7z m-235 -35 c3 -5 -1 -10 -10 -10 -31 0 -26 -30 15 -84 41 -54 46
-80 18 -91 -8 -3 -42 10 -78 30 -36 19 -60 35 -55 35 6 0 34 -14 64 -30 63
-35 67 -35 75 -14 4 11 -8 36 -34 70 -43 58 -46 68 -27 89 14 17 24 18 32 5z
m35 -20 c0 -5 -2 -10 -4 -10 -3 0 -8 5 -11 10 -3 6 -1 10 4 10 6 0 11 -4 11
-10z m-169 -117 c-7 -13 -5 -23 6 -35 9 -10 12 -18 7 -18 -5 0 -15 9 -22 21
-10 16 -10 24 -1 35 16 19 22 18 10 -3z m1359 -43 c0 -5 -8 -10 -17 -10 -15 0
-16 2 -3 10 19 12 20 12 20 0z m108 -5 c3 -3 -18 -5 -47 -5 -29 0 -50 4 -47 9
6 9 84 6 94 -4z m-149 1 c-2 -2 -22 -6 -44 -9 -28 -5 -34 -4 -20 3 19 8 73 14
64 6z m241 -6 c17 -6 9 -7 -25 -3 -27 3 -52 7 -54 9 -8 7 54 2 79 -6z m-331
-5 c-3 -2 -34 -12 -70 -20 -35 -9 -87 -25 -116 -36 l-51 -21 50 -86 c27 -48
53 -91 58 -95 4 -5 43 3 85 17 88 30 85 29 85 17 0 -5 -17 -11 -38 -15 -22 -3
-57 -13 -78 -22 -34 -15 -37 -18 -19 -25 13 -5 14 -8 5 -8 -26 -1 -45 22 -103
121 -40 71 -52 99 -44 106 16 13 194 69 226 71 8 1 12 -1 10 -4z m396 -5 c17
-8 16 -8 -7 -7 -16 1 -28 5 -28 9 0 10 9 9 35 -2z m-1549 -89 c-15 -16 -22
-18 -42 -9 -13 6 -22 13 -20 15 2 3 13 0 25 -6 16 -9 22 -8 30 6 8 14 3 26
-22 53 l-32 35 40 -37 c38 -36 38 -38 21 -57z m1638 69 c7 0 21 -7 32 -14 16
-13 12 -12 -26 0 -25 9 -47 18 -50 21 -3 4 3 3 13 0 10 -4 24 -7 31 -7z m1026
-15 c-20 -21 -21 -25 -7 -31 9 -3 38 4 64 17 46 22 81 33 70 22 -3 -2 -9 -5
-14 -6 -4 0 -32 -13 -62 -28 -50 -25 -56 -26 -67 -11 -9 13 -9 21 3 39 9 13
20 23 26 23 6 0 0 -11 -13 -25z m178 5 c11 -18 8 -26 -32 -68 -25 -26 -46 -44
-46 -40 0 4 19 26 41 49 l42 43 -23 18 c-14 11 -17 18 -9 18 8 0 20 -9 27 -20z
m-1070 -45 c2 -2 -16 -39 -41 -82 -42 -74 -46 -78 -81 -79 -34 -1 -34 -1 -4 3
23 3 38 12 49 31 8 15 28 48 43 75 l28 47 -36 15 c-20 8 -36 18 -36 20 0 5 70
-22 78 -30z m-1868 9 c16 -10 18 -13 5 -8 -33 12 -78 10 -83 -4 -2 -8 21 -36
52 -64 46 -42 54 -54 45 -69 -11 -21 -36 -24 -59 -8 -11 8 -7 9 16 4 52 -10
51 18 -2 61 -55 46 -70 70 -53 90 15 18 47 17 79 -2z m2837 -92 c-12 -13 -14
-21 -6 -29 8 -8 34 -2 91 18 76 27 82 27 94 11 7 -9 14 -20 14 -23 0 -10 -60
-66 -97 -92 -27 -17 -33 -27 -29 -47 l5 -25 -11 24 c-11 21 -9 26 17 44 17 12
48 38 70 58 33 31 37 39 27 52 -11 13 -22 12 -94 -14 -76 -27 -82 -27 -94 -11
-10 14 -10 20 3 35 9 9 18 17 21 17 3 0 -2 -8 -11 -18z m-1982 -79 c14 -25 25
-51 25 -57 0 -6 -16 -26 -35 -45 -40 -39 -95 -142 -95 -179 0 -24 -1 -25 -54
-18 -30 3 -61 9 -69 12 -24 9 -57 -31 -57 -68 0 -23 -3 -29 -11 -21 -14 14 12
78 38 92 13 6 33 6 59 1 62 -15 84 -12 84 8 0 31 58 136 95 175 19 20 35 41
35 46 0 17 -54 101 -65 101 -6 0 -17 -6 -25 -12 -8 -7 -6 -3 4 9 23 28 35 20
71 -44z m-916 31 c6 -6 -9 -5 -51 5 -49 12 -61 -14 -22 -47 14 -13 24 -25 22
-27 -2 -3 -17 8 -32 24 -23 24 -26 32 -17 49 9 18 15 19 53 10 23 -5 44 -11
47 -14z m2191 -40 c18 -20 13 -18 -19 9 -25 20 -47 37 -50 37 -7 0 -25 -30
-83 -138 l-40 -73 40 7 c22 3 47 2 55 -2 10 -6 -7 -9 -48 -10 l-64 -2 35 62
c19 33 49 86 67 118 l32 56 25 -18 c14 -10 36 -31 50 -46z m-1436 -36 c-39
-40 -81 -84 -93 -98 -78 -88 -177 -283 -197 -388 -4 -20 -14 -28 -14 -10 0 53
96 258 166 353 43 57 191 215 203 215 3 0 -26 -33 -65 -72z m673 66 c-3 -3
-12 -4 -19 -1 -8 3 -5 6 6 6 11 1 17 -2 13 -5z m53 -22 l0 -28 69 11 c37 7 74
16 82 20 11 6 11 5 2 -5 -6 -7 -33 -16 -60 -20 -26 -5 -60 -11 -75 -15 -26 -7
-28 -5 -28 23 0 21 -6 32 -17 35 -14 4 -12 5 5 6 18 1 22 -4 22 -27z m275 3
c-26 -9 -105 -12 -105 -4 0 5 26 9 58 8 31 0 53 -2 47 -4z m524 -95 c29 -33
49 -60 44 -59 -8 0 -108 119 -100 119 2 0 27 -27 56 -60z m-2272 14 c11 -28
-9 -51 -37 -43 l-25 7 28 1 c34 1 37 31 5 55 l-23 17 23 -11 c13 -6 26 -18 29
-26z m1393 -9 c19 -22 20 -26 5 -15 -24 18 -35 32 -35 44 0 5 1 7 3 5 1 -2 13
-17 27 -34z m343 28 c-7 -2 -19 -2 -25 0 -7 3 -2 5 12 5 14 0 19 -2 13 -5z
m1407 0 c0 -5 -13 -8 -30 -8 -16 0 -30 3 -30 8 0 4 14 7 30 7 17 0 30 -3 30
-7z m-130 -23 c-8 -5 -22 -9 -30 -9 -10 0 -8 3 5 9 27 12 43 12 25 0z m140 -9
c0 -5 -32 -30 -70 -57 -91 -62 -85 -82 20 -61 21 4 29 3 20 -2 -31 -18 -102
-24 -111 -10 -14 23 -12 25 59 74 37 26 69 51 70 56 5 12 12 12 12 0z m-3221
-17 c3 -3 -17 -3 -45 1 -41 5 -52 4 -57 -9 -7 -17 18 -39 77 -71 29 -16 36
-25 34 -45 -3 -21 -9 -25 -40 -28 -21 -2 -38 1 -38 5 0 5 16 7 35 5 30 -4 35
-1 35 16 0 15 -15 30 -47 49 -61 35 -74 52 -61 76 8 16 18 18 55 13 25 -3 48
-8 52 -12z m1648 10 c-3 -3 -12 -4 -19 -1 -8 3 -5 6 6 6 11 1 17 -2 13 -5z
m-44 -11 c-7 -2 -19 -2 -25 0 -7 3 -2 5 12 5 14 0 19 -2 13 -5z m-615 -33
c-22 -30 -35 -41 -22 -17 9 16 36 47 41 47 2 0 -6 -13 -19 -30z m57 4 c9 -15
12 -23 6 -20 -11 7 -35 46 -28 46 3 0 12 -12 22 -26z m1434 -149 c60 -104 133
-305 111 -305 -4 0 -11 17 -15 38 -16 88 -70 215 -134 312 -52 79 -56 88 -33
63 12 -11 44 -60 71 -108z m-279 111 c0 -3 -4 -8 -10 -11 -5 -3 -10 -1 -10 4
0 6 5 11 10 11 6 0 10 -2 10 -4z m-1249 -29 c-10 -9 -11 -8 -5 6 3 10 9 15 12
12 3 -3 0 -11 -7 -18z m1345 -11 c16 -10 20 -14 9 -10 -60 21 -85 31 -91 37
-11 11 51 -10 82 -27z m974 5 c0 -5 2 -15 5 -23 3 -8 -8 -21 -27 -32 l-33 -18
27 23 c31 27 27 44 -12 52 -21 4 -20 4 8 6 17 0 32 -3 32 -8z m-2345 -58 c-9
-15 -13 -19 -10 -8 4 11 10 29 13 40 3 11 7 14 9 8 3 -7 -3 -24 -12 -40z
m1212 41 c-3 -3 -12 -4 -19 -1 -8 3 -5 6 6 6 11 1 17 -2 13 -5z m73 2 c0 -3
-4 -8 -10 -11 -5 -3 -10 -1 -10 4 0 6 5 11 10 11 6 0 10 -2 10 -4z m-160 -16
c-18 -12 -43 -13 -36 -2 2 4 15 8 28 9 18 2 19 0 8 -7z m235 -8 c-3 -3 -11 0
-18 7 -9 10 -8 11 6 5 10 -3 15 -9 12 -12z m65 3 c0 -8 -2 -15 -4 -15 -2 0 -6
7 -10 15 -3 8 -1 15 4 15 6 0 10 -7 10 -15z m-2436 -3 c3 -5 -9 -6 -26 -4 -27
4 -47 -8 -48 -29 0 -4 29 -21 65 -40 68 -35 71 -39 55 -70 -11 -19 -50 -27
-50 -10 0 6 9 8 19 6 19 -3 36 19 26 35 -3 4 -24 17 -47 28 -65 31 -79 44 -72
70 5 17 14 22 40 22 18 0 35 -4 38 -8z m2404 -33 c-26 -15 -108 -126 -118
-159 -9 -31 -1 -36 53 -32 10 1 15 -2 12 -8 -6 -10 -53 -8 -72 3 -16 10 0 60
33 106 39 53 97 112 103 105 3 -3 -2 -10 -11 -15z m-68 -2 c0 -2 -10 -12 -22
-23 l-23 -19 19 23 c18 21 26 27 26 19z m960 -2 c0 -2 -18 -14 -40 -25 -44
-23 -52 -46 -17 -53 19 -4 18 -4 -5 -6 -23 -1 -28 3 -28 22 0 17 11 29 43 44
49 25 47 24 47 18z m-2320 -40 c-13 -14 -27 -25 -32 -25 -9 0 42 49 51 50 3 0
-6 -11 -19 -25z m-132 -15 c-7 -10 -14 -17 -17 -15 -4 4 18 35 25 35 2 0 -1
-9 -8 -20z m47 2 c-3 -3 -11 0 -18 7 -9 10 -8 11 6 5 10 -3 15 -9 12 -12z
m725 14 c0 -2 -9 -6 -20 -9 -11 -3 -18 -1 -14 4 5 9 34 13 34 5z m70 -6 c8 -5
12 -11 10 -14 -3 -2 -14 2 -24 10 -22 15 -10 19 14 4z m559 -40 c-23 -24 -47
-57 -55 -74 -7 -17 -13 -24 -14 -15 0 22 97 146 107 135 2 -1 -16 -22 -38 -46z
m-999 16 c0 -2 -7 -7 -16 -10 -8 -3 -12 -2 -9 4 6 10 25 14 25 6z m475 -6 c3
-5 1 -10 -4 -10 -6 0 -11 5 -11 10 0 6 2 10 4 10 3 0 8 -4 11 -10z m1595 1 c0
-4 -11 -6 -25 -3 -14 2 -25 6 -25 8 0 2 11 4 25 4 14 0 25 -4 25 -9z m88 -25
c1 -14 -5 -27 -15 -30 -13 -5 -14 -4 -4 8 9 11 10 20 1 35 -8 16 -8 19 3 16 7
-3 14 -16 15 -29z m-2581 -8 c-3 -8 -6 -5 -6 6 -1 11 2 17 5 13 3 -3 4 -12 1
-19z m365 -7 c-9 -16 -18 -28 -21 -26 -4 5 27 55 34 55 2 0 -4 -13 -13 -29z
m467 16 c-2 -1 -13 -9 -24 -17 -19 -14 -19 -14 -6 3 7 9 18 17 24 17 6 0 8 -1
6 -3z m-1696 -14 c-7 -2 -21 -2 -30 0 -10 3 -4 5 12 5 17 0 24 -2 18 -5z m831
-151 c3 -3 -8 -20 -25 -39 -16 -19 -32 -48 -36 -64 -6 -29 -33 -63 -33 -40 0
6 4 11 9 11 5 0 11 13 14 29 3 15 18 42 32 60 26 30 27 33 18 111 -5 44 -7 83
-4 86 4 3 9 -29 13 -71 4 -43 10 -80 12 -83z m455 135 c-15 -12 -32 -31 -38
-42 -6 -11 -11 -14 -11 -7 0 15 53 72 67 72 4 0 -4 -10 -18 -23z m-1344 5
c-24 -17 -7 -38 52 -62 77 -32 76 -32 63 -61 l-10 -24 4 25 c5 23 -1 27 -65
53 -48 20 -69 34 -69 46 0 20 9 31 24 31 7 0 8 -3 1 -8z m927 -27 c3 -13 1
-22 -3 -19 -9 5 -13 44 -5 44 2 0 6 -11 8 -25z m2530 13 c-6 -7 -33 -22 -61
-33 -74 -28 -67 -45 19 -45 39 0 70 -3 70 -7 0 -12 -134 -10 -142 2 -16 21 -6
35 40 54 26 12 54 25 62 30 21 14 24 13 12 -1z m-2502 -94 c21 -49 26 -71 9
-41 -16 27 -40 87 -35 87 3 0 14 -21 26 -46z m1545 36 c-3 -5 -12 -7 -20 -3
-21 7 -19 13 6 13 11 0 18 -4 14 -10z m93 3 c-10 -2 -28 -2 -40 0 -13 2 -5 4
17 4 22 1 32 -1 23 -4z m71 -17 c7 -9 -17 -39 -87 -107 l-97 -94 94 97 95 97
-27 10 c-15 6 -27 12 -27 15 0 8 39 -6 49 -18z m-1331 -33 c9 -7 11 -13 4 -13
-12 0 -42 39 -42 55 0 5 6 1 12 -10 6 -11 18 -26 26 -32z m985 -12 c-4 -7 -34
21 -45 43 -7 14 -2 11 18 -9 16 -16 28 -32 27 -34z m1213 7 c6 -22 -16 -49
-40 -47 -6 0 -1 5 12 11 26 13 29 33 5 47 -16 9 -17 10 -1 11 9 0 20 -10 24
-22z m-2126 -3 c-7 -8 -17 -15 -23 -15 -6 0 -2 7 9 15 25 19 30 19 14 0z m-84
-55 c21 -25 30 -38 19 -30 -30 22 -38 32 -59 65 -21 34 -15 29 40 -35z m1171
54 c-3 -3 -12 -4 -19 -1 -8 3 -5 6 6 6 11 1 17 -2 13 -5z m-2477 -22 c-24 -2
-48 -9 -52 -15 -5 -8 -8 -6 -8 5 0 13 10 18 43 20 23 2 47 1 52 -2 6 -3 -10
-6 -35 -8z m75 8 c-3 -5 -12 -10 -18 -10 -7 0 -6 4 3 10 19 12 23 12 15 0z
m2278 3 c-7 -2 -19 -2 -25 0 -7 3 -2 5 12 5 14 0 19 -2 13 -5z m60 0 c-7 -2
-19 -2 -25 0 -7 3 -2 5 12 5 14 0 19 -2 13 -5z m-1742 -73 c-10 -24 -10 -24
-7 5 8 58 9 60 13 40 2 -12 -1 -32 -6 -45z m1899 57 c0 -2 -10 -12 -22 -23
l-23 -19 19 23 c18 21 26 27 26 19z m-1662 -29 c7 -7 12 -17 12 -22 0 -6 -5
-3 -11 7 -14 24 -26 21 -43 -10 -8 -16 -15 -23 -16 -18 0 13 29 55 39 55 4 0
12 -5 19 -12z m71 -33 c0 -5 -4 -3 -9 5 -5 8 -9 22 -9 30 0 16 17 -16 18 -35z
m2451 30 c-46 -18 -64 -17 -25 0 17 8 37 14 45 14 8 0 -1 -7 -20 -14z m-3415
-31 c24 -11 25 -13 5 -8 -14 4 -38 13 -55 20 -24 11 -25 13 -5 8 14 -4 39 -13
55 -20z m2495 11 c-7 -8 -17 -15 -23 -15 -6 0 -2 7 9 15 25 19 30 19 14 0z
m269 -47 c1 -27 -1 -28 -56 -29 -113 -2 -165 -1 -170 5 -4 3 44 6 106 6 l112
0 -5 43 c-4 29 -3 36 4 22 5 -11 9 -32 9 -47z m-1080 -18 c0 -8 -6 0 -14 19
-8 18 -15 36 -15 40 1 13 29 -45 29 -59z m1705 30 c20 0 36 -3 36 -8 0 -4 -20
-6 -44 -4 -35 3 -45 8 -50 25 -5 20 -4 21 8 5 8 -12 27 -18 50 -18z m-3321
-25 c-3 -14 -9 -25 -14 -25 -5 0 -4 11 1 25 7 20 6 25 -5 25 -8 0 -15 5 -15
10 0 7 6 7 19 1 13 -7 17 -18 14 -36z m838 22 c-10 -9 -11 -8 -5 6 3 10 9 15
12 12 3 -3 0 -11 -7 -18z m1544 13 c-3 -5 -12 -10 -18 -10 -7 0 -6 4 3 10 19
12 23 12 15 0z m-1405 -20 c0 -11 -4 -20 -9 -20 -5 0 -7 9 -4 20 3 11 7 20 9
20 2 0 4 -9 4 -20z m-396 -1 c-3 -6 0 -15 7 -20 11 -7 10 -9 -3 -9 -11 0 -18
8 -18 20 0 11 5 20 11 20 5 0 7 -5 3 -11z m1756 1 c-8 -5 -19 -10 -25 -10 -5
0 -3 5 5 10 8 5 20 10 25 10 6 0 3 -5 -5 -10z m-1532 -14 c-7 -8 -15 -12 -17
-11 -5 6 10 25 20 25 5 0 4 -6 -3 -14z m36 -4 c3 -5 -1 -9 -9 -9 -8 0 -12 4
-9 9 3 4 7 8 9 8 2 0 6 -4 9 -8z m1616 -12 c0 -5 -4 -10 -10 -10 -5 0 -10 5
-10 10 0 6 5 10 10 10 6 0 10 -4 10 -10z m-2490 -10 c0 -5 -8 -10 -17 -10 -15
0 -16 2 -3 10 19 12 20 12 20 0z m1691 -16 c5 -15 8 -29 5 -31 -2 -2 -8 10
-14 26 -13 38 -5 41 9 5z m-28 -3 c2 -10 1 -24 -3 -30 -4 -7 -7 1 -8 18 -1 35
3 40 11 12z m1805 -7 c-10 -10 -108 -32 -108 -25 0 4 21 12 48 18 62 13 66 14
60 7z m-1836 -34 l8 -25 -18 24 c-14 17 -25 22 -40 16 -12 -3 -22 -11 -22 -17
0 -6 -3 -8 -6 -5 -4 4 -1 14 6 22 20 24 61 15 72 -15z m1700 -1 c-13 -5 -22
-15 -20 -21 4 -11 62 -27 106 -30 6 -1 12 -6 12 -11 0 -5 -7 -6 -16 -3 -9 3
-27 8 -40 11 -13 3 -35 7 -49 10 -43 9 -30 53 15 54 8 0 4 -4 -8 -10z m-1732
-24 c13 -14 21 -25 18 -25 -2 0 -15 11 -28 25 -13 14 -21 25 -18 25 2 0 15
-11 28 -25z m-1635 5 c17 -8 16 -8 -7 -7 -16 1 -28 5 -28 9 0 10 9 9 35 -2z
m65 -20 c0 -5 -9 -6 -20 -3 -11 3 -20 9 -20 13 0 5 9 6 20 3 11 -3 20 -9 20
-13z m1517 -12 c-3 -7 -5 -2 -5 12 0 14 2 19 5 13 2 -7 2 -19 0 -25z m160 10
c-3 -8 -6 -5 -6 6 -1 11 2 17 5 13 3 -3 4 -12 1 -19z m-22 -56 c-10 -16 -27
-35 -39 -42 -14 -9 -11 -1 12 24 17 20 32 42 32 48 0 6 3 9 6 5 3 -3 -2 -19
-11 -35z m-1655 19 c0 -5 -30 -16 -67 -24 -75 -17 -101 -15 -32 2 35 9 78 22
97 30 1 1 2 -3 2 -8z m1510 -4 c0 -7 -7 -22 -15 -33 -13 -17 -13 -16 -3 14 13
34 18 40 18 19z m-910 -65 c0 -5 -7 -9 -15 -9 -8 0 -12 4 -9 9 3 4 9 8 15 8 5
0 9 -4 9 -8z m113 -1 c4 0 7 -4 7 -8 0 -5 -25 -6 -55 -5 -64 4 -67 18 -3 16
24 -1 46 -2 51 -3z m44 -23 c-3 -8 -6 -5 -6 6 -1 11 2 17 5 13 3 -3 4 -12 1
-19z m97 -10 c-5 -7 -7 -21 -6 -30 2 -11 -3 -18 -12 -18 -9 0 -16 9 -16 20 0
12 -5 17 -14 14 -17 -7 -32 14 -19 27 6 6 15 4 23 -6 16 -19 34 -20 27 -1 -7
18 4 29 16 17 5 -5 6 -15 1 -23z m1726 28 c0 -2 -8 -10 -17 -17 -16 -13 -17
-12 -4 4 13 16 21 21 21 13z m120 -31 c0 -19 -4 -35 -8 -35 -5 0 -7 14 -4 30
5 37 -8 38 -51 6 -59 -43 -87 -59 -87 -47 0 6 6 11 13 12 6 0 32 15 57 34 60
45 80 45 80 0z m-1714 13 c-10 -6 -22 -6 -26 -2 -5 5 3 10 18 11 22 1 24 0 8
-9z m51 6 c-3 -3 -12 -4 -19 -1 -8 3 -5 6 6 6 11 1 17 -2 13 -5z m623 -14 c0
-11 -2 -20 -4 -20 -2 0 -6 9 -9 20 -3 11 -1 20 4 20 5 0 9 -9 9 -20z m-1680
-2 c0 -4 -9 -8 -20 -8 -11 0 -20 4 -20 8 0 4 9 8 20 8 11 0 20 -4 20 -8z m605
3 c3 -5 1 -12 -5 -16 -5 -3 -10 1 -10 9 0 18 6 21 15 7z m621 -6 c-3 -9 0 -15
8 -15 8 0 17 6 19 13 4 9 6 9 6 0 1 -16 -17 -26 -34 -19 -13 5 -11 36 2 36 3
0 3 -7 -1 -15z m1334 6 c0 -8 -81 -33 -88 -27 -2 2 16 10 40 19 24 8 44 15 46
16 1 0 2 -3 2 -8z m-2530 -42 c0 -10 -15 -20 -41 -28 -23 -7 -43 -11 -45 -8
-2 2 14 9 37 16 37 11 40 15 35 39 -5 20 -4 23 4 12 5 -8 10 -22 10 -31z
m1156 23 c1 -7 0 -8 -3 -2 -2 5 -9 10 -14 10 -6 0 -7 -4 -4 -10 3 -5 1 -10 -4
-10 -12 0 -14 13 -4 24 9 9 26 2 29 -12z m433 14 c-2 -2 -15 -9 -29 -15 -24
-11 -24 -11 -6 3 16 13 49 24 35 12z m544 -108 c-8 -14 -23 -8 -17 6 3 8 -4
32 -15 55 -12 22 -21 44 -21 48 1 4 14 -17 29 -47 16 -30 27 -58 24 -62z
m-1357 81 c19 -22 19 -22 -3 -8 -13 8 -23 17 -23 21 0 12 6 9 26 -13z m-64
-14 c3 -13 2 -22 -2 -20 -5 3 -13 -9 -19 -25 -5 -17 -12 -30 -15 -30 -3 0 -1
11 4 25 11 30 -4 34 -32 8 -10 -9 -18 -11 -18 -5 0 14 55 44 64 35 3 -4 6 3 6
15 0 29 7 28 12 -3z m1718 16 c0 -5 -12 -8 -26 -8 -18 0 -22 2 -13 8 18 11 39
11 39 0z m-1846 -36 c5 -22 4 -26 -4 -15 -5 8 -10 24 -10 34 0 26 6 18 14 -19z
m1057 12 c-10 -9 -11 -8 -5 6 3 10 9 15 12 12 3 -3 0 -11 -7 -18z m383 1 c7
-25 -24 -58 -53 -58 -9 1 -1 7 16 15 30 13 32 16 23 39 -5 15 -6 26 -1 26 5 0
11 -10 15 -22z m319 5 c-7 -2 -19 -2 -25 0 -7 3 -2 5 12 5 14 0 19 -2 13 -5z
m-1474 -25 c-1 -18 -2 -19 -6 -5 -4 15 -7 16 -21 5 -15 -12 -16 -11 -3 5 19
24 31 21 30 -5z m269 13 c10 -6 7 -10 -13 -15 -15 -4 -30 -5 -33 -1 -3 3 2 5
12 5 9 0 14 5 11 10 -8 12 5 13 23 1z m120 0 c7 -1 15 -9 19 -18 3 -10 13 -27
22 -38 16 -20 16 -20 -6 -1 -13 11 -23 25 -23 33 0 12 -12 16 -52 16 -10 0
-15 3 -13 7 3 5 13 7 23 5 9 -2 23 -4 30 -4z m1416 -28 c-34 -188 -152 -402
-300 -543 -58 -55 -58 -55 8 17 150 162 241 328 278 507 13 62 25 78 14 19z
m-1899 9 c-3 -3 -11 0 -18 7 -9 10 -8 11 6 5 10 -3 15 -9 12 -12z m1750 8 c-3
-5 -12 -10 -18 -10 -7 0 -6 4 3 10 19 12 23 12 15 0z m-276 -3 c-2 -1 -15 -11
-29 -22 l-25 -20 19 23 c11 12 24 22 29 22 6 0 8 -1 6 -3z m-2366 -19 c-27
-13 -28 -21 -7 -42 13 -14 13 -16 1 -16 -23 0 -30 43 -10 58 9 6 22 12 27 11
6 0 1 -5 -11 -11z m1001 -28 c8 0 17 -4 21 -9 3 -6 -6 -7 -23 -2 -33 10 -92
39 -92 46 0 3 18 -4 40 -15 21 -11 46 -20 54 -20z m172 28 c5 -7 2 -9 -8 -5
-9 3 -19 2 -24 -3 -5 -4 -18 -4 -29 1 -18 9 -18 9 2 5 13 -2 26 0 29 5 7 12
21 11 30 -3z m1434 5 c0 -5 -21 -17 -47 -27 -45 -19 -46 -20 -26 -35 12 -9 35
-24 53 -33 l31 -18 -18 -32 c-22 -39 -172 -192 -181 -183 -3 3 5 13 19 22 34
23 131 125 152 162 l18 30 -39 20 c-36 18 -70 48 -61 54 5 3 93 46 97 46 1 1
2 -2 2 -6z m940 -8 c0 -9 -9 -15 -22 -14 -17 1 -19 2 -5 6 9 2 17 9 17 14 0 5
2 9 5 9 3 0 5 -7 5 -15z m-2333 -1 c-3 -3 -12 -4 -19 -1 -8 3 -5 6 6 6 11 1
17 -2 13 -5z m-477 -104 c56 -169 140 -302 272 -432 115 -114 107 -113 166
-10 l50 87 -26 11 -27 11 33 -1 c17 0 32 -5 32 -10 0 -11 -100 -185 -111 -192
-13 -8 -145 112 -209 189 -94 115 -183 290 -215 422 -12 54 2 22 35 -75z m560
90 c18 -12 2 -12 -25 0 -13 6 -15 9 -5 9 8 0 22 -4 30 -9z m2138 5 c-11 -11
-68 -23 -68 -15 0 5 12 11 28 13 15 2 31 5 36 6 5 0 7 -1 4 -4z m62 -3 c0 -10
-36 -9 -46 1 -4 4 5 7 19 7 15 0 27 -4 27 -8z m-2709 -50 c20 -26 46 -74 59
-107 14 -33 41 -77 62 -98 21 -21 38 -43 38 -48 0 -6 12 -21 28 -35 l27 -26
-32 22 c-18 12 -33 27 -33 33 0 6 -17 29 -38 52 -21 22 -49 67 -61 100 -13 33
-41 81 -63 108 -22 26 -36 47 -31 47 4 -1 24 -22 44 -48z m309 38 c-8 -5 -22
-9 -30 -9 -10 0 -8 3 5 9 27 12 43 12 25 0z m1074 0 c-11 -4 -33 -22 -47 -40
-15 -17 -27 -28 -27 -24 0 15 64 74 79 73 11 0 9 -3 -5 -9z m160 -16 c3 -8 2
-12 -4 -9 -6 3 -10 10 -10 16 0 14 7 11 14 -7z m-1519 -4 c3 -5 1 -10 -4 -10
-6 0 -11 5 -11 10 0 6 2 10 4 10 3 0 8 -4 11 -10z m565 -20 c19 -17 30 -30 25
-30 -6 1 -26 14 -45 30 -19 17 -30 30 -25 30 6 -1 26 -14 45 -30z m-1252 6
c28 -17 12 -46 -40 -71 -28 -14 -53 -23 -55 -21 -2 2 18 14 46 26 35 16 49 28
48 41 -1 16 -10 19 -54 19 -29 0 -53 3 -53 8 0 9 91 8 108 -2z m3399 -56 c7 0
2 -36 -7 -50 -7 -11 -9 -8 -7 15 2 27 -2 31 -70 60 -39 16 -75 34 -80 38 -4 5
30 -8 77 -27 46 -20 86 -36 87 -36z m-1152 42 c-3 -3 -11 0 -18 7 -9 10 -8 11
6 5 10 -3 15 -9 12 -12z m-1399 -8 c18 -14 18 -14 -6 -3 -31 14 -36 19 -24 19
6 0 19 -7 30 -16z m-96 2 c0 -2 -7 -9 -15 -16 -13 -11 -14 -10 -9 4 5 14 24
23 24 12z m82 -46 c6 0 8 -3 5 -6 -8 -8 -77 37 -77 49 0 5 14 -3 31 -17 17
-14 35 -26 41 -26z m1548 1 c0 -22 -50 -100 -81 -126 -15 -13 -12 -7 9 18 42
50 65 95 59 118 -3 11 -1 17 4 13 5 -3 9 -13 9 -23z m-1455 9 c3 -6 -1 -7 -9
-4 -18 7 -21 14 -7 14 6 0 13 -4 16 -10z m-138 -90 c5 -1 28 -19 53 -42 l45
-41 -40 29 c-63 45 -96 77 -111 106 -24 47 -15 44 16 -5 16 -26 33 -47 37 -47z
m193 80 c0 -5 -2 -10 -4 -10 -3 0 -8 5 -11 10 -3 6 -1 10 4 10 6 0 11 -4 11
-10z m40 6 c0 -2 -7 -6 -15 -10 -8 -3 -15 -1 -15 4 0 6 7 10 15 10 8 0 15 -2
15 -4z m-93 -22 c-3 -3 -12 -4 -19 -1 -8 3 -5 6 6 6 11 1 17 -2 13 -5z m-1042
-24 c-3 -5 -1 -19 5 -30 8 -15 8 -18 -3 -15 -15 6 -21 55 -6 55 5 0 7 -4 4
-10z m3395 1 c0 -5 -11 -8 -25 -7 -33 1 -33 16 0 16 14 0 25 -4 25 -9z m-64
-25 c0 -15 -5 -21 -10 -16 -5 5 -6 16 -3 24 9 23 15 19 13 -8z m137 17 c-7 -2
-19 -2 -25 0 -7 3 -2 5 12 5 14 0 19 -2 13 -5z m-3345 -38 c3 -3 -10 -5 -30
-3 -20 1 -35 5 -33 9 5 7 54 3 63 -6z m32 1 c0 -8 3 -21 6 -29 3 -9 -2 -18
-13 -21 -11 -4 -40 -20 -66 -36 -51 -32 -54 -56 -9 -63 24 -4 23 -4 -5 -6 -18
0 -33 3 -33 8 0 5 -2 16 -5 23 -4 9 16 27 59 52 60 35 64 40 56 62 -6 15 -6
24 0 24 6 0 10 -6 10 -14z m3302 -58 c12 -9 16 -21 12 -35 -5 -19 -13 -23 -43
-22 -34 2 -34 2 -6 6 27 4 44 17 45 34 0 3 -27 21 -60 38 -33 18 -60 34 -60
37 0 6 89 -40 112 -58z m-1072 -2 c0 -2 -8 -10 -17 -17 -16 -13 -17 -12 -4 4
13 16 21 21 21 13z m-480 -26 c0 -5 -8 -10 -17 -10 -15 0 -16 2 -3 10 19 12
20 12 20 0z m-835 -10 c13 -6 15 -9 5 -9 -8 0 -22 4 -30 9 -18 12 -2 12 25 0z
m1271 1 c-6 -9 -46 -22 -46 -15 0 3 10 9 23 14 29 11 29 11 23 1z m1005 -1
c16 0 29 -4 29 -10 0 -5 -6 -8 -12 -6 -94 29 -106 -3 -20 -54 31 -18 62 -41
69 -49 16 -22 -2 -51 -30 -50 -20 1 -20 2 -2 6 26 7 36 24 23 40 -6 7 -37 29
-69 49 -36 22 -59 42 -59 53 0 23 11 33 28 26 7 -3 27 -5 43 -5z m-2218 -7
c-7 -2 -19 -2 -25 0 -7 3 -2 5 12 5 14 0 19 -2 13 -5z m734 1 c-3 -3 -12 -4
-19 -1 -8 3 -5 6 6 6 11 1 17 -2 13 -5z m-624 -11 c-7 -2 -21 -2 -30 0 -10 3
-4 5 12 5 17 0 24 -2 18 -5z m1030 -10 c-7 -2 -19 -2 -25 0 -7 3 -2 5 12 5 14
0 19 -2 13 -5z m127 3 c0 -8 -87 -55 -113 -61 -15 -4 -27 -11 -27 -16 0 -12
111 -209 118 -209 3 0 14 7 24 17 10 9 18 12 18 7 0 -5 -11 -17 -24 -26 l-23
-17 -66 117 -66 117 27 10 c15 5 50 22 77 37 55 30 55 30 55 24z m-2194 -34
c10 -27 8 -30 -25 -52 -63 -42 -63 -34 1 11 20 14 21 19 10 43 -6 14 -8 26 -4
26 4 0 12 -13 18 -28z m1561 22 c-3 -3 -12 -4 -19 -1 -8 3 -5 6 6 6 11 1 17
-2 13 -5z m-1612 -14 c-26 -11 -48 -12 -41 -2 2 4 17 8 33 9 24 1 25 0 8 -7z
m1782 -8 c-10 -10 -18 -29 -18 -43 l-2 -24 -4 23 c-4 21 20 62 35 62 3 0 -2
-8 -11 -18z m-353 0 c2 -4 -7 -8 -22 -9 -24 -2 -24 -1 -7 7 11 5 21 9 22 9 1
1 4 -3 7 -7z m73 2 c-3 -3 -12 -4 -19 -1 -8 3 -5 6 6 6 11 1 17 -2 13 -5z
m-582 -34 c7 -6 30 -16 51 -24 21 -8 32 -15 24 -15 -9 -1 -33 8 -55 19 -22 11
-52 20 -67 20 -15 0 -28 4 -28 9 0 11 59 4 75 -9z m2243 -56 c23 -4 42 -10 42
-14 0 -4 -26 -1 -57 6 -95 22 -97 7 -8 -64 36 -29 65 -56 65 -60 0 -5 -7 -17
-16 -28 -14 -18 -14 -18 -3 5 11 23 8 27 -27 55 -83 66 -96 80 -88 99 5 13 13
17 28 13 11 -3 40 -8 64 -12z m-1788 -4 c11 -7 8 -9 -14 -7 -27 2 -34 -7 -113
-136 -45 -76 -83 -142 -83 -146 0 -19 308 -100 329 -86 4 2 13 0 21 -6 58 -36
-286 40 -357 80 -7 4 17 53 72 146 105 177 107 179 145 155z m453 3 c-7 -2
-19 -2 -25 0 -7 3 -2 5 12 5 14 0 19 -2 13 -5z m-1877 -12 c-4 -5 -3 -16 0
-25 5 -13 16 -15 48 -12 29 4 35 3 21 -4 -38 -17 -72 -12 -78 12 -6 21 -1 38
9 38 3 0 3 -4 0 -9z m1483 -11 c-6 -5 -18 -6 -26 -3 -19 8 -16 11 13 11 17 0
22 -3 13 -8z m144 3 c-7 -2 -19 -2 -25 0 -7 3 -2 5 12 5 14 0 19 -2 13 -5z
m107 -22 c16 -16 32 -26 36 -22 4 3 4 0 -1 -8 -6 -10 -12 -8 -29 12 -11 14
-30 30 -41 36 -11 6 -14 11 -7 11 8 0 26 -13 42 -29z m-1572 -3 c9 -21 4 -28
-46 -74 -48 -43 -55 -54 -44 -66 11 -13 18 -14 50 -2 20 7 44 13 52 13 8 0
-10 -9 -39 -19 -51 -17 -56 -17 -68 -2 -20 27 -16 34 42 80 46 37 53 47 45 63
-7 11 -17 16 -28 13 -14 -5 -15 -4 -2 5 21 15 26 14 38 -11z m1862 -134 c34
-58 58 -110 53 -114 -12 -11 -95 -41 -100 -37 -2 3 18 13 46 22 57 21 58 12
-18 143 -30 52 -58 89 -64 85 -6 -3 -7 -1 -3 6 12 18 20 8 86 -105z m1103 46
c31 -11 63 -20 72 -20 8 0 15 -4 15 -9 0 -8 -83 13 -131 33 -30 13 -31 -23 -1
-52 29 -28 30 -28 -31 19 -7 6 8 49 16 49 2 0 28 -9 60 -20z m-2895 -45 c17
-37 14 -45 -4 -12 -8 16 -20 25 -26 21 -7 -4 -8 -3 -4 4 11 18 22 14 34 -13z
m-8 -39 c0 -2 -19 -24 -41 -47 l-41 -43 22 -18 c14 -11 17 -18 9 -18 -8 0 -20
9 -27 20 -11 18 -7 25 29 65 39 42 49 51 49 41z m2940 -37 c23 -42 -29 -64
-80 -33 -16 10 -18 13 -5 8 65 -23 96 -13 75 26 -6 11 -8 20 -6 20 3 0 10 -9
16 -21z m-130 -4 c31 -17 21 -19 -15 -3 -22 10 -28 9 -35 -3 -7 -10 1 -25 28
-54 l37 -40 -42 39 c-34 32 -40 42 -32 58 12 21 25 22 59 3z m-2717 -43 c15
-16 13 -22 -29 -75 -26 -33 -42 -62 -38 -68 4 -8 3 -9 -4 -5 -18 11 -15 17 33
76 37 45 42 57 32 68 -11 10 -20 9 -53 -4 -40 -18 -70 -26 -61 -17 3 2 9 5 14
6 4 1 24 9 43 19 44 22 44 22 63 0z m1647 -36 c0 -2 -7 -6 -15 -10 -8 -3 -15
-1 -15 4 0 6 7 10 15 10 8 0 15 -2 15 -4z m-40 -10 c0 -2 -7 -7 -16 -10 -8 -3
-12 -2 -9 4 6 10 25 14 25 6z m-41 -10 c-10 -10 -79 -24 -79 -16 0 8 22 14 69
19 8 0 12 -1 10 -3z m1037 -8 c4 -7 4 -10 -1 -6 -4 4 -14 3 -21 -3 -11 -9 -11
-16 3 -40 10 -16 20 -29 24 -29 4 0 9 -7 13 -15 10 -26 -3 -16 -33 26 -25 34
-28 44 -18 60 14 22 23 24 33 7z m152 -18 c10 -17 10 -25 -3 -43 -8 -12 -15
-17 -15 -11 0 5 5 15 12 22 9 9 7 16 -7 32 -10 11 -14 20 -9 20 5 0 15 -9 22
-20z m-1338 0 c0 -5 -12 -10 -27 -9 l-28 1 25 8 c14 4 26 8 28 9 1 1 2 -3 2
-9z m53 3 c-7 -2 -19 -2 -25 0 -7 3 -2 5 12 5 14 0 19 -2 13 -5z m1252 -51
c-5 -5 -95 40 -101 50 -3 4 19 -4 50 -19 30 -16 53 -29 51 -31z m-1382 41
c-13 -2 -35 -2 -50 0 -16 2 -5 4 22 4 28 0 40 -2 28 -4z m-1233 -45 c0 -4 -16
-30 -35 -57 -63 -87 -41 -112 47 -52 57 39 78 44 78 18 0 -8 -3 -8 -9 1 -6 10
-22 3 -69 -29 -51 -36 -64 -40 -77 -29 -23 19 -19 38 20 91 38 54 40 60 24 76
-8 8 -24 4 -58 -17 -25 -15 -57 -31 -71 -35 -14 -3 2 8 35 25 33 17 64 35 69
40 10 10 46 -15 46 -32z m2430 -65 c0 -3 -11 2 -24 10 -21 14 -26 15 -36 1
-10 -11 -10 -18 2 -32 31 -35 68 -110 62 -125 -11 -29 -35 -28 -75 4 -21 17
-39 33 -39 36 0 2 18 -10 40 -27 33 -26 43 -30 55 -20 21 17 20 19 -26 90 -38
59 -39 63 -23 81 15 17 18 17 40 2 13 -8 24 -18 24 -20z m120 -17 c0 -7 -6
-20 -13 -30 -13 -18 -15 -18 -55 5 -23 13 -42 28 -42 32 0 4 17 -4 37 -18 21
-14 41 -25 44 -25 14 0 18 32 7 53 -10 20 -10 21 5 8 10 -7 17 -19 17 -25z
m-2458 -58 c-43 -70 -52 -91 -41 -105 8 -9 16 -10 33 -2 20 11 20 10 4 -7 -17
-17 -18 -17 -37 0 -12 11 -17 25 -14 34 10 28 67 121 71 117 2 -2 -5 -19 -16
-37z m2204 -9 c19 -22 19 -22 -3 -8 -37 22 -48 -1 -22 -45 12 -20 19 -39 16
-42 -2 -3 -14 14 -25 38 -20 39 -20 43 -5 60 20 22 16 22 39 -3z m-2091 -35
l23 -15 -29 -59 c-16 -32 -29 -64 -29 -70 0 -20 31 -23 53 -4 l22 18 -21 -23
c-16 -16 -28 -21 -43 -16 -28 8 -27 24 7 94 27 57 27 59 9 71 -17 10 -24 7
-53 -21 -19 -18 -34 -30 -34 -26 0 6 61 66 68 67 1 0 13 -7 27 -16z m2030
-108 c21 -20 44 -35 50 -33 5 2 9 19 9 38 -2 32 -1 32 9 11 11 -24 2 -52 -19
-59 -5 -2 -35 19 -66 47 -83 74 -103 66 -63 -24 14 -31 25 -65 25 -76 0 -26
-36 -46 -53 -28 -6 7 -31 34 -53 59 -32 36 -45 44 -58 37 -9 -5 -13 -14 -9
-21 3 -6 14 -39 24 -74 16 -63 16 -64 -5 -79 -20 -14 -23 -13 -56 26 -20 22
-44 55 -55 73 -25 43 -16 34 40 -41 39 -54 48 -62 61 -51 17 14 12 68 -12 125
-13 31 -12 34 7 48 20 14 24 11 76 -44 34 -37 60 -57 69 -53 20 7 17 29 -11
98 -23 55 -23 60 -8 77 16 18 17 18 37 -1 12 -11 39 -35 61 -55z m-1905 19
c16 -15 16 -20 -6 -79 -21 -58 -22 -66 -7 -78 14 -11 22 -6 63 40 25 28 53 52
61 52 27 0 38 -20 28 -54 -5 -17 -12 -44 -15 -61 -3 -16 -7 -31 -10 -34 -9 -9
-3 36 10 81 8 25 12 49 9 52 -11 11 -42 6 -50 -8 -13 -22 -73 -86 -81 -86 -4
0 -15 7 -25 14 -17 13 -16 17 6 80 21 56 22 67 10 77 -11 10 -20 6 -45 -17
l-32 -29 25 32 c28 37 36 39 59 18z m1553 -113 c-9 -5 -9 -19 -2 -51 5 -24 8
-46 5 -48 -6 -6 -25 90 -20 99 3 4 11 8 17 8 9 0 9 -2 0 -8z m-1286 -20 c14
-9 15 -82 2 -82 -5 0 -7 17 -6 37 3 58 -22 52 -71 -17 -38 -54 -44 -59 -62
-48 -10 7 -17 14 -15 17 3 2 11 -1 18 -8 11 -9 22 1 56 49 42 59 54 67 78 52z
m1214 -87 c23 -36 43 -65 46 -65 2 0 14 5 26 11 21 10 21 10 2 -6 -10 -8 -24
-14 -30 -12 -8 3 -43 50 -80 112 -6 10 -16 14 -27 10 -12 -5 -15 -16 -12 -43
l4 -37 -10 35 c-7 28 -6 37 7 48 9 6 21 12 25 12 5 0 27 -29 49 -65z m-1110
18 c-11 -16 -31 -47 -45 -70 -24 -40 -28 -42 -51 -31 -14 6 -25 18 -25 27 1
14 2 13 11 -1 19 -33 43 -20 77 42 19 33 38 60 43 60 5 0 1 -12 -10 -27z m52
-3 c3 -11 1 -20 -4 -20 -5 0 -9 4 -9 9 0 5 -3 17 -7 27 -4 11 -3 15 4 11 6 -4
13 -16 16 -27z m910 -57 c39 -83 67 -96 67 -33 0 23 4 39 9 36 9 -6 6 -60 -4
-77 -4 -5 -15 -9 -25 -9 -14 0 -28 20 -52 69 -18 38 -36 67 -40 65 -5 -3 -8 0
-8 5 0 30 24 4 53 -56z m-71 32 c-2 -14 -6 -25 -8 -25 -2 0 -4 11 -4 25 0 14
4 25 9 25 4 0 6 -11 3 -25z m-696 -50 l0 -60 -3 58 c-3 48 -7 57 -23 57 -13 0
-27 -19 -49 -66 -26 -55 -34 -65 -53 -62 -12 2 -23 9 -24 16 -1 7 0 8 3 2 2
-5 13 -10 22 -10 13 0 27 20 47 65 25 59 31 66 54 63 24 -3 25 -6 26 -63z
m-299 33 c-3 -8 -6 -5 -6 6 -1 11 2 17 5 13 3 -3 4 -12 1 -19z m916 -55 c23
-58 32 -70 47 -66 13 4 20 16 23 42 l4 36 1 -41 c2 -38 -1 -42 -24 -47 -24 -4
-29 1 -50 49 -13 30 -24 57 -24 61 0 4 -8 15 -17 26 -14 15 -14 19 -3 15 8 -2
27 -36 43 -75z m381 62 c-4 -8 -8 -15 -10 -15 -2 0 -4 7 -4 15 0 8 4 15 10 15
5 0 7 -7 4 -15z m-1147 -57 c-2 -13 -4 -3 -4 22 0 25 2 35 4 23 2 -13 2 -33 0
-45z m229 -13 c-13 -37 -28 -71 -33 -75 -11 -11 -53 7 -53 22 0 10 2 10 9 0
19 -31 46 -7 70 61 13 37 25 66 28 64 2 -3 -7 -35 -21 -72z m76 5 c1 -28 0
-50 -4 -50 -5 0 -8 23 -8 50 0 39 -4 50 -16 50 -8 0 -12 5 -9 10 13 22 33 -11
37 -60z m394 55 c-4 -24 -16 -30 -16 -7 0 12 4 22 9 22 5 0 8 -7 7 -15z m-84
-70 c13 -41 21 -75 18 -75 -4 0 -16 30 -27 68 -15 51 -25 68 -40 70 -16 2 -20
-3 -21 -29 -1 -43 -12 -50 -12 -7 0 40 5 48 35 48 18 0 26 -12 47 -75z"/>
</g>
</svg>
